<?xml version="1.0" encoding="utf-8"?>
<!-- Generator: Adobe Illustrator 24.0.2, SVG Export Plug-In . SVG Version: 6.00 Build 0)  -->
<svg version="1.1" id="Capa_1" xmlns="http://www.w3.org/2000/svg" xmlns:xlink="http://www.w3.org/1999/xlink" x="0px" y="0px"
	 viewBox="0 0 1080 1080" style="enable-background:new 0 0 1080 1080;" xml:space="preserve">
<style type="text/css">
	.st0{fill:#DA8646;}
	.st1{fill:#DA8746;}
	.st2{fill:#010101;}
	.st3{fill:#030303;}
	.st4{fill:#020202;}
	.st5{fill:#040404;}
	.st6{fill:#050505;}
	.st7{fill:#0C0C0C;}
	.st8{fill:#0D0D0D;}
	.st9{fill:#616161;}
	.st10{fill:#FEFEFE;}
</style>
<path d="M541.04,427.82c-7.76,0-15.2-0.02-22.64,0.03c-0.95,0.01-1.26-0.52-1.61-1.17c-6.56-12.26-17.26-18.45-30.61-20.38
	c-12.49-1.81-24.26,0.38-34.71,7.81c-4.34,3.08-7.9,6.89-10.67,11.56c-8.18,13.79-8.17,28.07-1.6,42.07
	c4.84,10.31,13.6,16.99,24.74,20.11c12.74,3.58,25.22,2.97,37.2-2.9c4.51-2.21,8.07-5.58,11.3-9.52c3.33-4.06,4.91-8.65,6.2-13.71
	c-8.6,0-17.03,0-25.46,0c-4.59,0-9.17-0.06-13.76,0.03c-1.42,0.03-1.76-0.42-1.74-1.78c0.08-4.91,0.08-9.82,0-14.73
	c-0.02-1.34,0.3-1.8,1.74-1.8c21.05,0.05,42.1,0.05,63.14,0c1.54,0,1.66,0.61,1.64,1.86c-0.06,5-0.21,10.04-1.53,14.85
	c-1.85,6.78-3.41,13.74-7.08,19.86c-7.67,12.8-18.43,21.88-32.79,26.35c-15.32,4.77-30.71,5.02-46.11,0.2
	c-8.59-2.68-16.27-6.92-23.22-12.63c-6.05-4.97-10.9-10.8-14.64-17.67c-9.54-17.51-9.64-35.42-1.88-53.39
	c2.26-5.23,5.26-10.36,9.68-14.33c0.29-0.26,0.5-0.61,0.78-0.95c-0.69-0.65-1.46-0.33-2.13-0.34c-10.57-0.03-21.13,0.04-31.69-0.07
	c-2.07-0.02-2.73,0.36-2.72,2.62c0.08,23.41,0,46.81,0,70.22c0,6.32-2.15,11.95-5.63,17.04c-4.43,6.49-11.1,9.65-18.56,11.14
	c-7.21,1.44-14.46,1.5-21.66-0.35c-4.56-1.17-8.7-3.2-12.47-5.97c-3.77-2.77-3.58-2.74-1.66-7.09c1.97-4.47,3.68-9.07,5.28-13.69
	c0.76-2.19,1.49-1.98,2.91-0.65c3.29,3.08,7.17,5.27,11.67,5.69c8.13,0.75,13.57-4.23,14-12.41c0.07-1.39,0.09-2.78,0.09-4.17
	c0.01-19.81-0.04-39.61,0.06-59.42c0.01-2.25-0.35-3.04-2.84-2.97c-7.04,0.2-14.09-0.02-21.13,0.13c-2.13,0.05-2.55-0.62-2.49-2.6
	c0.14-5.4,0.14-10.8,0-16.2c-0.05-2,0.43-2.82,2.52-2.58c1.45,0.17,2.94,0.03,4.42,0.03c38.9,0,77.81-0.26,116.71,0.22
	c8.09,0.1,16.14-1.37,24.27-0.14c8.29,1.25,16.36,3.06,23.95,6.66c9.65,4.57,17.83,10.79,24.05,19.7
	C537.66,417.11,539.3,422.28,541.04,427.82z"/>
<path class="st0" d="M218.57,417.51c6.76-4.52,12.76-8.87,19.09-12.68c8.72-5.25,16.97-11.17,25.39-16.84
	c4.39-2.95,8.75-5.94,13.2-8.8c1.3-0.83,1.6-1.79,1.59-3.22c-0.04-19.32,0-38.63-0.08-57.95c-0.01-2,0.47-2.63,2.55-2.59
	c25.05,0.48,50.11,0.26,75.16,0.25c1.81,0,2.5,0.44,2.36,2.32c-0.16,2.2-0.14,4.42-0.01,6.62c0.1,1.75-0.55,2.21-2.24,2.2
	c-11.14-0.06-22.28-0.03-33.41-0.03c-9.09,0-18.18-0.01-27.27,0.01c-3.85,0.01-3.32-0.37-3.32,3.2c-0.02,17.27-0.01,34.54,0,51.81
	c0,1.58,0.28,2.91-2.23,2.95c-1.42,0.02-2.89,1.33-4.22,2.24c-6.07,4.11-12.1,8.27-18.14,12.43c-2.38,1.64-5.03,2.91-7.59,5.32
	c2.82,0,5.14,0,7.46,0c7.37,0,14.74,0.1,22.11-0.06c2.21-0.05,2.68,0.59,2.67,2.71c-0.08,35.77-0.05,71.53-0.14,107.3
	c-0.01,2.43,0.52,3.1,3.05,3.09c86.08-0.07,172.15-0.05,258.23-0.12c2.48,0,3.48,0.5,3.22,3.15c-0.25,2.59-0.11,5.23-0.03,7.85
	c0.04,1.33-0.29,2.02-1.75,1.84c-0.65-0.08-1.31-0.01-1.96-0.01c-85.58,0-171.17,0-256.75,0c-5.08,0-10.16-0.07-15.23,0.11
	c-2.11,0.07-2.53-0.62-2.53-2.61c0.06-35.77,0.05-71.53,0.04-107.3c0-3.72,0.51-3.18-3.29-3.18c-18.02-0.02-36.04-0.01-54.05-0.01
	C220.06,417.51,219.66,417.51,218.57,417.51z"/>
<path class="st0" d="M341.67,351.96c0-7.61,0.05-15.22-0.04-22.83c-0.02-1.74,0.53-2.23,2.22-2.18c3.93,0.11,7.86,0.12,11.79,0
	c1.78-0.05,2.19,0.61,2.18,2.26c-0.07,8.67-0.03,17.35-0.03,26.02c0,3.11,0.01,3.12,3.1,2.33c13.53-3.43,27.05-6.89,40.59-10.3
	c21.48-5.41,42.98-10.8,64.47-16.2c15.35-3.86,30.7-7.72,46.05-11.59c7.16-1.8,14.32-3.61,21.48-5.4c1.7-0.42,3.33-0.31,5.04,0.27
	c17.96,6.02,35.93,11.98,53.91,17.95c12.17,4.04,24.34,8.05,36.51,12.09c18.65,6.19,37.31,12.37,55.95,18.61
	c3.16,1.06,3.33,0.45,1.92,4.15c-0.84,2.2-1.67,4.41-2.34,6.67c-0.43,1.44-0.93,1.88-2.51,1.34c-8.77-2.98-17.57-5.83-26.37-8.73
	c-16.03-5.28-32.06-10.55-48.08-15.86c-11.25-3.73-22.48-7.52-33.72-11.28c-11.78-3.93-23.59-7.79-35.33-11.82
	c-1.69-0.58-3.11-0.02-4.51,0.33c-16.07,3.98-32.11,8.08-48.16,12.14c-19.9,5.03-39.78,10.15-59.71,15.07
	c-24.31,6-48.66,11.83-72.72,18.81c-3.21,0.93-6.49,1.66-9.67,2.67c-1.85,0.59-2.05-0.13-2.04-1.69c0.05-7.61,0.02-15.22,0.02-22.83
	C341.67,351.96,341.67,351.96,341.67,351.96z"/>
<path class="st0" d="M706.03,439.86c0,6.29-0.04,12.26,0.03,18.22c0.02,1.56-0.38,2.23-2.05,2.12c-2.04-0.13-4.1-0.16-6.14,0.01
	c-1.94,0.15-2.48-0.49-2.47-2.44c0.08-15.14,0.04-30.28,0.04-45.43c0-2.05,0.05-4.09-0.01-6.14c-0.03-1.17,0.42-1.59,1.58-1.56
	c2.29,0.06,4.59,0.07,6.88,0c1.3-0.04,1.7,0.47,1.69,1.72c-0.01,1.36-0.28,2.77,0.36,4.4c4.41-5.4,10.02-7.87,16.78-7.27
	c5.73,0.51,10.65,2.79,14.45,7.31c8.34,9.91,6.66,24.09-2.87,31.86C726.78,448.8,713.56,449.6,706.03,439.86z"/>
<path class="st0" d="M625.08,411.25c-0.08,0-0.17-0.01-0.25,0c-3.33,0.48-5.42-0.32-7.01-3.9c-2.28-5.12-7.19-7.34-12.64-7.99
	c-7.54-0.91-14.21,1.11-19.17,6.98c-3.6,4.27-4.36,9.55-3.8,15.04c1.24,12.14,13.12,18.28,24.16,16.12
	c6.08-1.19,10.72-4.24,12.75-10.4c0.3-0.89,0.73-1.31,1.73-1.29c2.78,0.06,5.57,0.03,8.35,0.02c1.29,0,2.02,0.27,0.97,1.65
	c-0.24,0.31-0.38,0.71-0.49,1.09c-2.72,9.74-9.59,15.11-18.98,17.48c-9.75,2.46-19,0.97-27.36-4.77c-5.82-3.99-9.4-9.51-11.2-16.38
	c-0.69-2.64-1.31-5.23-0.95-7.87c1.41-10.24,6.01-18.38,15.58-23.23c9.23-4.68,18.62-5.13,28.18-1.28
	c6.92,2.79,11.97,7.46,14.31,14.75c1.28,4,1.32,3.99-2.97,3.99C625.9,411.25,625.49,411.25,625.08,411.25z"/>
<path class="st0" d="M672.86,439.81c-6.31,9.27-21.42,9.83-29.11,2.28c-9.48-9.31-10.46-21.96-0.88-32.71
	c6.18-6.93,21.1-9.68,29.95,1.13c0.1-0.25,0.23-0.45,0.24-0.65c0.2-5.18,0.19-5.18,5.56-5.18c4.71,0,4.71,0,4.71,4.76
	c0,11.36-0.06,22.73,0.05,34.09c0.02,2.09-0.61,2.82-2.6,2.49c-0.4-0.07-0.82,0-1.23-0.01c-2.04-0.05-4.54,0.61-5.99-0.34
	C672.12,444.68,673.46,441.98,672.86,439.81z"/>
<path class="st1" d="M843.96,411.07c0-0.9,0-1.39,0-1.88c0.03-4.53,0.03-4.53,4.68-4.53c5.09,0,5.09,0,5.09,5.13
	c0,11.12-0.09,22.25,0.07,33.37c0.03,2.47-0.72,3.12-3.01,2.87c-1.7-0.19-3.44-0.1-5.15-0.02c-1.26,0.06-1.78-0.32-1.69-1.65
	c0.1-1.45,0.02-2.92,0.02-4.98c-5.04,6.2-11.25,8.37-18.61,7.68c-5.43-0.51-9.92-3.03-13.27-7.04c-7.37-8.83-6.5-22.92,0.58-30.06
	C822.3,400.26,835.69,401.5,843.96,411.07z"/>
<path class="st1" d="M777.99,424.1c0-2.95-0.12-5.9,0.04-8.84c0.11-1.93-0.61-2.41-2.39-2.28c-1.87,0.14-3.77-0.03-5.65,0.05
	c-1.29,0.06-1.64-0.42-1.7-1.69c-0.3-6.69-0.34-6.69,6.26-6.69c3.44,0,3.44,0,3.44-3.41c0-2.37,0.06-4.75-0.02-7.12
	c-0.04-1.27,0.39-1.76,1.68-1.68c2.68,0.17,6.08-1.07,7.86,0.42c1.74,1.45,0.48,4.92,0.54,7.5c0.1,4.29,0.03,4.3,4.3,4.3
	c2.46,0,4.91,0.05,7.37-0.02c1.29-0.03,1.86,0.25,1.92,1.74c0.25,6.64,0.3,6.59-6.33,6.67c-2.33,0.03-5.34-1.06-6.83,0.5
	c-1.37,1.43-0.4,4.38-0.39,6.65c0.01,4.09-0.27,8.18,0.22,12.26c0.4,3.34,1.73,4.83,5.07,5.25c2.18,0.27,4.41,0.26,6.61,0.24
	c1.37-0.01,1.85,0.67,1.57,1.8c-0.52,2.05,1.45,5.7-1.02,5.97c-5.26,0.58-10.75,1.05-15.94-1.32c-4.81-2.19-6.03-6.4-6.46-10.98
	c-0.29-3.08-0.06-6.21-0.06-9.32C778.07,424.1,778.03,424.1,777.99,424.1z"/>
<path class="st1" d="M876.32,417.77c0,8.59-0.05,17.18,0.04,25.77c0.02,1.82-0.31,2.74-2.38,2.49c-2.57-0.31-6.03,1.1-7.5-0.58
	c-1.27-1.46-0.41-4.83-0.41-7.35c-0.02-15.46,0.03-30.92-0.05-46.38c-0.01-2.04,0.54-2.8,2.59-2.54c2.49,0.31,5.73-1.08,7.3,0.61
	c1.42,1.53,0.38,4.69,0.4,7.13C876.35,403.86,876.32,410.81,876.32,417.77z"/>
<path class="st1" d="M762.31,425.33c0,6.13-0.08,12.27,0.05,18.4c0.04,1.92-0.62,2.39-2.38,2.29c-2.28-0.12-4.58-0.08-6.87-0.01
	c-1.14,0.03-1.58-0.32-1.57-1.52c0.03-12.76,0.03-25.52,0-38.27c0-1.15,0.36-1.6,1.54-1.57c2.45,0.06,4.91,0.08,7.36,0
	c1.55-0.05,1.91,0.6,1.89,2.04C762.27,412.9,762.31,419.11,762.31,425.33z"/>
<path class="st2" d="M419.89,556.38c3.78-5.24,12.76-5.53,16.86,0.82c5.2-6.61,13.53-6.4,18.36,0.54c0.78,1.13,1.07,2.57,1.08,3.98
	c0.03,4.99-0.05,9.98,0.08,14.97c0.05,1.85-1.09,1.45-2.06,1.4c-0.98-0.05-2.37,0.63-2.32-1.44c0.11-4.41,0.02-8.83,0.03-13.25
	c0.01-3.06-0.72-5.81-3.82-7.04c-3.17-1.26-6.13-0.31-8.61,1.83c-1.37,1.18-1.6,2.97-1.6,4.74c0,4.42-0.09,8.84,0.04,13.25
	c0.05,1.72-0.59,1.93-2.09,2c-1.68,0.07-1.82-0.62-1.8-1.98c0.07-4.33,0.06-8.67,0.01-13c-0.05-4.26-2.88-7.27-6.78-7.3
	c-4.61-0.04-7.3,2.57-7.36,7.26c-0.06,4.42-0.11,8.84,0.03,13.25c0.06,1.74-0.73,1.83-2.02,1.73c-1.15-0.09-2.39,0.42-2.35-1.7
	c0.13-7.19,0.12-14.39,0.01-21.59c-0.03-1.84,0.66-2.14,2.27-2.13c1.5,0.01,2.37,0.26,2.06,1.99
	C419.83,555.08,419.89,555.49,419.89,556.38z"/>
<path d="M550.63,574.58c-0.03,0.49-0.13,0.88-0.06,1.23c0.36,1.98-0.54,2.33-2.37,2.37c-1.93,0.04-2.02-0.77-2.02-2.3
	c0.06-10.38,0.08-20.76-0.02-31.14c-0.02-1.8,0.57-2.13,2.21-2.12c1.59,0.01,2.3,0.22,2.23,2.07c-0.16,3.82-0.05,7.65-0.05,12.01
	c3.19-3.94,7.12-4.58,11.42-4.18c3.06,0.29,5.58,1.55,7.68,3.82c5.42,5.85,4.78,13.74-0.77,18.97
	C564.1,579.82,556.2,579.6,550.63,574.58z"/>
<path class="st2" d="M738.23,574.58c-6.12,5.21-14.07,5.28-18.77,0.28c-4.44-4.72-4.87-12.86-1.94-16.9
	c4.98-6.89,15.87-7.25,20.52-1.7c0.46-0.37,0.29-0.9,0.24-1.31c-0.2-1.6,0.2-2.29,2.05-2.27c1.81,0.02,2.36,0.45,2.33,2.33
	c-0.12,6.86-0.05,13.73-0.04,20.59c0,1.38,0.32,2.6-1.96,2.61c-2.19,0.01-2.68-0.75-2.37-2.63
	C738.33,575.29,738.25,574.99,738.23,574.58z"/>
<path class="st2" d="M879.83,556.77c0-1.2,0.07-1.79-0.01-2.35c-0.23-1.51,0.55-1.71,1.84-1.71c1.36,0,2.06,0.18,2.04,1.84
	c-0.09,7.28-0.1,14.56,0.01,21.83c0.03,1.76-0.78,1.75-2.06,1.76c-1.24,0.01-2.08-0.09-1.83-1.65c0.09-0.56,0.01-1.14,0.01-2
	c-7.26,5.47-14.36,6.23-20.43-1.15c-3.82-4.64-3.07-12.62,0.86-17.06c2.58-2.92,5.99-3.65,9.69-3.88
	C873.82,552.16,876.77,553.99,879.83,556.77z"/>
<path d="M500.81,552.43c7.99-0.56,13.69,6.2,13.9,12.57c0.22,6.92-5.54,13.49-13.27,13.56c-7.49,0.07-13.78-5.03-13.93-12.8
	C487.34,557.81,493.52,552.26,500.81,552.43z"/>
<path class="st2" d="M362.92,556.43c6.43-6.24,14.57-5.21,18.99,2.15c0.84,1.4,0.94,3.12,0.95,4.76c0.03,4.33-0.11,8.67,0.07,12.99
	c0.09,2.04-1.04,1.74-2.27,1.79c-1.34,0.05-2.25,0.07-2.17-1.84c0.18-4.16,0.09-8.33,0.04-12.5c-0.06-5.16-2.7-7.9-7.55-7.92
	c-5.08-0.02-8.13,2.94-8.16,7.99c-0.03,4.17-0.14,8.34,0.05,12.5c0.1,2.06-1.03,1.73-2.25,1.76c-1.31,0.03-2.25,0.11-2.21-1.83
	c0.14-7.03,0.08-14.06,0.04-21.08c-0.01-1.52-0.07-2.55,2.08-2.55c2.07,0,2.54,0.75,2.29,2.53
	C362.78,555.48,362.87,555.79,362.92,556.43z"/>
<path class="st3" d="M646.46,560.43c0,5.31-0.08,10.63,0.05,15.94c0.04,1.72-0.7,1.85-2.01,1.74c-1.15-0.09-2.38,0.41-2.36-1.68
	c0.1-10.63,0.1-21.26,0-31.89c-0.02-1.87,0.82-1.91,2.19-1.89c1.31,0.02,2.25-0.1,2.19,1.83
	C646.35,549.8,646.46,555.12,646.46,560.43z"/>
<path class="st2" d="M779.96,557.63c2.02-3.08,4.9-4.51,8.28-5.09c0.68-0.12,1.88-0.58,1.67,0.88c-0.14,0.98,0.94,2.45-1.19,2.81
	c-6.6,1.11-8.88,5.84-8.77,11.03c0.06,3.11-0.09,6.22,0.04,9.32c0.09,2.24-1.47,1.37-2.49,1.52c-1.17,0.17-1.92,0.05-1.9-1.57
	c0.1-7.36,0.1-14.72,0-22.08c-0.03-1.78,0.84-1.76,2.09-1.72c1.24,0.04,2.56-0.23,2.3,1.79
	C779.85,555.54,779.96,556.59,779.96,557.63z"/>
<path class="st4" d="M324.52,561.66c0,4.9-0.12,9.8,0.06,14.69c0.07,2.02-0.99,1.74-2.23,1.78c-1.35,0.04-2.21,0.03-2.19-1.86
	c0.11-9.96,0.12-19.92,0-29.88c-0.02-2.02,1.06-1.72,2.29-1.8c1.42-0.09,2.18,0.08,2.12,1.89
	C324.43,551.53,324.52,556.59,324.52,561.66z"/>
<path class="st1" d="M756.89,387.06c3.64,0.01,6.33,2.39,6.53,5.44c0.24,3.56-3.54,5.62-6.62,5.62c-4.13,0.01-6.43-2.11-6.38-5.71
	C750.48,389.01,752.84,387.05,756.89,387.06z"/>
<path class="st5" d="M609.11,565.58c0,3.59-0.1,7.19,0.05,10.77c0.07,1.67-0.61,1.92-1.97,1.77c-1.11-0.12-2.43,0.49-2.4-1.64
	c0.11-7.34,0.1-14.69,0-22.04c-0.03-2.05,1.21-1.61,2.39-1.73c1.43-0.14,2.03,0.23,1.98,1.84
	C609.02,558.23,609.11,561.9,609.11,565.58z"/>
<path d="M683.94,565.34c0,3.76-0.09,7.53,0.04,11.29c0.06,1.78-1,1.53-2.02,1.47c-0.98-0.06-2.31,0.61-2.28-1.44
	c0.1-7.44,0.08-14.89,0-22.33c-0.02-1.66,0.85-1.64,2-1.57c1.07,0.06,2.34-0.4,2.29,1.55C683.86,557.97,683.94,561.65,683.94,565.34
	z"/>
<path class="st6" d="M824.86,565.49c0,3.67-0.09,7.35,0.04,11.02c0.06,1.6-0.67,1.68-1.88,1.62c-1.09-0.05-2.02,0.16-1.99-1.56
	c0.1-7.35,0.09-14.69,0-22.04c-0.02-1.67,0.72-1.8,2.06-1.83c1.37-0.03,1.85,0.34,1.81,1.77
	C824.8,558.14,824.86,561.82,824.86,565.49z"/>
<path class="st7" d="M605,544c0.37-0.51,1.2-0.51,2.02-0.5c0.81,0.01,1.41-0.01,1.84,0.42c0.48,0.48,0.47,1.31,0.52,2.33
	c0.04,0.75,0.03,1.61-0.4,1.82c-0.18,0.09-0.26-0.02-0.97-0.06c-0.16-0.01-0.13,0-1,0c-0.91,0-0.78-0.01-1,0
	c-0.82,0.02-0.88,0.08-1,0c-0.31-0.22-0.03-0.83,0-2C605.03,544.7,604.7,544.41,605,544z"/>
<path class="st8" d="M820.95,546.02c-0.29-1.68-0.02-2.48,2.01-2.55c2.4-0.08,2.08,1.22,2.14,2.71c0.07,1.59-0.09,2.44-2.13,2.47
	C820.6,548.71,820.74,547.48,820.95,546.02z"/>
<path d="M679.85,543.78c1.31-0.02,2.61-0.05,3.92-0.07c0.45,1.09,0.11,2.23,0.22,3.34c0.11,1.09-0.47,1.31-1.45,1.36
	c-2.94,0.16-2.99,0.16-2.95-2.76C679.6,545.02,679.41,544.35,679.85,543.78z"/>
<path class="st9" d="M679.85,543.78c-0.01,0.73,0.03,1.46-0.04,2.18c-0.16,1.54,0.18,2.33,2.04,2.33c1.93,0,2.11-0.94,1.99-2.41
	c-0.06-0.72-0.05-1.45-0.07-2.18c1.04,1.36,0.71,2.99,0.35,4.32c-0.37,1.37-1.97,0.47-3.01,0.62c-0.65,0.1-1.73,0.29-1.69-0.78
	C679.46,546.51,678.7,545.02,679.85,543.78z"/>
<path class="st10" d="M718.96,438.18c-7.36-0.06-13.12-5.7-13-12.74c0.12-7.59,5.61-13.04,13.04-12.97
	c7.74,0.07,12.95,5.34,12.86,13C731.77,433.05,726.51,438.24,718.96,438.18z"/>
<path class="st10" d="M659.76,412.48c7.35-0.13,12.79,5.18,12.98,12.68c0.18,7.11-5.2,12.85-12.17,12.99
	c-8.05,0.17-13.49-4.79-13.64-12.43C646.77,417.9,651.89,412.62,659.76,412.48z"/>
<path class="st10" d="M817.31,425.43c-0.55-7.6,6.29-12.98,13.11-13.04c7.09-0.07,13.09,6.96,13.14,12.83
	c0.05,6.17-5.94,12.91-12.92,13.02C823.96,438.35,816.81,433.03,817.31,425.43z"/>
<path class="st10" d="M559.59,555.88c5.71,0,9.45,3.75,9.49,9.51c0.04,5.72-3.75,9.64-9.38,9.71c-5.68,0.07-9.29-3.64-9.33-9.59
	C550.34,559.5,553.82,555.87,559.59,555.88z"/>
<path class="st10" d="M738.41,565.62c-0.06,5.84-3.58,9.47-9.19,9.47c-5.72,0-9.59-4-9.5-9.81c0.09-5.76,3.86-9.45,9.6-9.4
	C735.11,555.92,738.48,559.54,738.41,565.62z"/>
<path class="st10" d="M879.95,565.47c0.5,4.73-4.62,9.97-9.45,9.65c-5.55-0.36-9.73-3.63-9.74-9.7c-0.01-5.89,4.17-9.3,9.77-9.62
	C875.36,555.52,880.49,560.77,879.95,565.47z"/>
<path class="st10" d="M510.31,565.56c-0.02,5.81-3.56,9.5-9.16,9.53c-5.68,0.03-9.27-3.7-9.28-9.64c-0.01-5.96,3.51-9.6,9.28-9.58
	C506.89,555.9,510.34,559.53,510.31,565.56z"/>
</svg>
